<svg width="32" height="32" viewBox="0 0 32 32" fill="none" xmlns="http://www.w3.org/2000/svg">
<g clip-path="url(#clip0_2074_60038)">
<circle cx="16" cy="16.0005" r="16" fill="white"/>
<path d="M15.5138 15.7446C15.1754 15.7441 14.8389 15.795 14.5157 15.8954C12.8997 16.384 11.8871 17.9845 12.1375 19.6541C12.388 21.3237 13.8256 22.5566 15.5138 22.5496C15.8538 22.5479 16.1917 22.4972 16.5172 22.3988C18.119 21.8967 19.1159 20.302 18.8656 18.642C18.6153 16.982 17.1926 15.7522 15.5138 15.7446" fill="#80829B"/>
<path d="M14.5768 17.2109C14.8962 18.2172 14.5753 19.3166 13.7648 19.993C12.9543 20.6695 11.8152 20.7885 10.8823 20.2942C9.94949 19.7999 9.40828 18.7905 9.51283 17.74C9.61739 16.6895 10.3469 15.8065 11.3589 15.5058C12.717 15.1022 14.1482 15.8605 14.5768 17.2109Z" fill="#000638"/>
<path d="M21.9377 25.3624C22.3514 26.7066 21.5975 28.1318 20.2534 28.5461C18.9093 28.9604 17.4838 28.2069 17.069 26.863C16.6543 25.5191 17.4072 24.0933 18.7509 23.678C19.3969 23.4784 20.0957 23.5438 20.6934 23.8597C21.2911 24.1756 21.7388 24.7162 21.9377 25.3624V25.3624Z" fill="#000638"/>
<path d="M6.19128 21.5981C6.0151 21.5985 5.83993 21.6247 5.67142 21.6761C4.79291 21.947 4.27165 22.8492 4.47583 23.7455C4.68 24.6419 5.54058 25.2293 6.44972 25.093C7.35886 24.9566 8.00921 24.1425 7.94141 23.2257C7.87361 22.3089 7.11059 21.5993 6.19128 21.5981" fill="#000638"/>
<path d="M22.423 18.4537C22.2942 18.4523 22.1661 18.4716 22.0435 18.5109C21.4288 18.6995 21.0444 19.3093 21.1394 19.9452C21.2343 20.5812 21.78 21.0521 22.423 21.053C22.5532 21.0518 22.6827 21.0326 22.8077 20.9958C23.4233 20.8069 23.8078 20.1956 23.7114 19.5589C23.6151 18.9221 23.067 18.452 22.423 18.4537" fill="#CCCDD7"/>
<path d="M8.45877 8.3833C8.16963 8.38319 7.88216 8.42701 7.60619 8.51327C6.16174 8.96171 5.30723 10.4479 5.64636 11.9218C5.98549 13.3958 7.40358 14.3591 8.89877 14.1311C10.394 13.9032 11.4606 12.5612 11.3452 11.0531C11.2297 9.54505 9.97123 8.38099 8.45877 8.3833" fill="#80829B"/>
<path d="M20.0609 3.34082C19.5213 3.34093 18.9848 3.42332 18.4701 3.58515C15.9295 4.37608 14.3434 6.89938 14.7323 9.53164C15.1211 12.1639 17.3689 14.1209 20.0297 14.1435C20.5688 14.1427 21.1049 14.0621 21.6204 13.9044C24.1696 13.1197 25.7643 10.5918 25.3748 7.9532C24.9852 5.31462 22.728 3.3554 20.0609 3.34082" fill="#CCCDD7"/>
<path d="M25.329 6.38187C24.1755 6.38236 23.2127 7.26233 23.1088 8.4111C23.0048 9.55988 23.794 10.5984 24.9287 10.8059C25.0624 10.8309 25.1982 10.8431 25.3342 10.8423C26.4876 10.8418 27.4504 9.96182 27.5544 8.81305C27.6583 7.66427 26.8691 6.62578 25.7345 6.41826C25.6008 6.39325 25.465 6.38107 25.329 6.38187" fill="#000638"/>
</g>
<defs>
<clipPath id="clip0_2074_60038">
<rect width="32" height="32" fill="white"/>
</clipPath>
</defs>
</svg>
