<svg width="32" height="32" viewBox="0 0 32 32" fill="none" xmlns="http://www.w3.org/2000/svg">
<g clip-path="url(#clip0_2074_60038)">
<rect width="32" height="32" fill="white"/>
<path d="M15.3875 15.6768C14.9598 15.6762 14.5344 15.7404 14.126 15.8673C12.0835 16.4849 10.8037 18.5077 11.1202 20.6179C11.4367 22.728 13.2537 24.2863 15.3875 24.2775C15.8172 24.2754 16.2443 24.2112 16.6556 24.0869C18.6802 23.4522 19.9401 21.4367 19.6237 19.3387C19.3074 17.2407 17.5092 15.6863 15.3875 15.6768Z" fill="#80829B"/>
<path d="M14.2037 17.5303C14.6074 18.8021 14.2018 20.1917 13.1774 21.0466C12.153 21.9015 10.7132 22.0519 9.53421 21.4272C8.35522 20.8025 7.67119 19.5267 7.80333 18.199C7.93547 16.8712 8.85754 15.7553 10.1365 15.3752C11.853 14.8651 13.6619 15.8236 14.2037 17.5303Z" fill="#000638"/>
<path d="M23.5064 27.8329C24.0294 29.5319 23.0764 31.3332 21.3777 31.8568C19.6789 32.3804 17.8773 31.4281 17.353 29.7295C16.8288 28.031 17.7804 26.229 19.4787 25.7041C20.2951 25.4518 21.1783 25.5344 21.9338 25.9337C22.6893 26.333 23.255 27.0162 23.5064 27.8329Z" fill="#000638"/>
<path d="M3.60485 23.0752C3.38218 23.0756 3.16079 23.1088 2.9478 23.1738C1.83746 23.5161 1.17865 24.6564 1.4367 25.7892C1.69476 26.9221 2.78244 27.6646 3.93149 27.4923C5.08054 27.3199 5.90251 26.291 5.81682 25.1322C5.73113 23.9735 4.76675 23.0767 3.60485 23.0752" fill="#000638"/>
<path d="M24.119 19.1007C23.9563 19.0989 23.7944 19.1233 23.6394 19.173C22.8625 19.4114 22.3767 20.1821 22.4967 20.9858C22.6166 21.7896 23.3064 22.3848 24.119 22.3859C24.2837 22.3844 24.4473 22.3601 24.6052 22.3136C25.3834 22.0749 25.8693 21.3023 25.7475 20.4975C25.6257 19.6927 24.933 19.0985 24.119 19.1007Z" fill="#CCCDD7"/>
<path d="M6.47048 6.37305C6.10505 6.37291 5.74172 6.42829 5.39293 6.53731C3.5673 7.10409 2.48729 8.98244 2.91591 10.8454C3.34454 12.7083 5.13684 13.9257 7.0266 13.6377C8.91635 13.3496 10.2645 11.6534 10.1186 9.74738C9.97268 7.84137 8.38206 6.37013 6.47048 6.37305Z" fill="#80829B"/>
<path d="M21.1348 0C20.4528 0.000140793 19.7748 0.104275 19.1242 0.308811C15.9132 1.30845 13.9086 4.49763 14.4 7.8245C14.8914 11.1514 17.7325 13.6248 21.0954 13.6534C21.7768 13.6523 22.4543 13.5505 23.1059 13.3512C26.3277 12.3594 28.3433 9.1644 27.8509 5.82953C27.3586 2.49466 24.5057 0.0184334 21.1348 0" fill="#CCCDD7"/>
<path d="M27.7923 3.8438C26.3344 3.84441 25.1176 4.95659 24.9862 6.40852C24.8548 7.86044 25.8523 9.17297 27.2864 9.43526C27.4553 9.46686 27.6269 9.48226 27.7989 9.48125C29.2567 9.48063 30.4735 8.36845 30.6049 6.91653C30.7363 5.46461 29.7388 4.15207 28.3048 3.88979C28.1358 3.85818 27.9642 3.84278 27.7923 3.8438Z" fill="#000638"/>
</g>
<defs>
<clipPath id="clip0_2074_60038">
<rect width="32" height="32" fill="white"/>
</clipPath>
</defs>
</svg>
