<?xml version="1.0" encoding="UTF-8" standalone="no"?>
<svg
   width="225.22623"
   height="72.544861"
   preserveAspectRatio="xMinYMin"
   fill="none"
   version="1.1"
   id="svg58"
   sodipodi:docname="logo-plateforme-inclusion.svg"
   viewBox="0 0 776.64216 250.15469"
   inkscape:version="1.2.2 (b0a8486541, 2022-12-01, custom)"
   xmlns:inkscape="http://www.inkscape.org/namespaces/inkscape"
   xmlns:sodipodi="http://sodipodi.sourceforge.net/DTD/sodipodi-0.dtd"
   xmlns="http://www.w3.org/2000/svg"
   xmlns:svg="http://www.w3.org/2000/svg">
  <defs
     id="defs62" />
  <sodipodi:namedview
     id="namedview60"
     pagecolor="#ffffff"
     bordercolor="#000000"
     borderopacity="0.25"
     inkscape:showpageshadow="2"
     inkscape:pageopacity="0.0"
     inkscape:pagecheckerboard="0"
     inkscape:deskcolor="#d1d1d1"
     showgrid="false"
     inkscape:zoom="1.9579618"
     inkscape:cx="279.62752"
     inkscape:cy="126.9177"
     inkscape:window-width="1882"
     inkscape:window-height="1016"
     inkscape:window-x="38"
     inkscape:window-y="27"
     inkscape:window-maximized="1"
     inkscape:current-layer="svg58" />
  <path
     fill-rule="evenodd"
     clip-rule="evenodd"
     d="m 229.17471,155.85 a 7.303,7.303 0 0 0 2,5.45 7.453,7.453 0 0 0 5.5,2.25 7.302,7.302 0 0 0 5.45,-2.05 7.349,7.349 0 0 0 2.05,-5.45 V 137.3 h 16.15 a 24.556,24.556 0 0 0 17.2,-5.7 20,20 0 0 0 6.15,-15.55 19.997,19.997 0 0 0 -6.15,-15.5 25,25 0 0 0 -17.2,-5.55 h -24.15 a 6.35,6.35 0 0 0 -7,7 z m 40.45,-39.674 v 0.124 -0.25 z m -11.25,-9.876 c 7.453,0 11.203,3.406 11.25,9.876 -0.047,6.566 -3.797,9.874 -11.25,9.874 h -14.2 V 106.3 Z"
     fill="#000638"
     id="path18" />
  <path
     d="m 294.27471,161.6 a 6.35,6.35 0 0 1 -2.05,-5 v -55 a 6.35,6.35 0 0 1 2.05,-5 8,8 0 0 1 5,-1.75 7.848,7.848 0 0 1 5,1.75 6.2,6.2 0 0 1 2.05,5 v 55 a 6.201,6.201 0 0 1 -2.05,5 7.847,7.847 0 0 1 -5,1.75 8.005,8.005 0 0 1 -5,-1.75 z"
     fill="#000638"
     id="path20" />
  <path
     fill-rule="evenodd"
     clip-rule="evenodd"
     d="m 359.52471,134.9 a 21.249,21.249 0 0 0 -5,-15.45 21.001,21.001 0 0 0 -15.4,-5.2 44.708,44.708 0 0 0 -9.55,1.05 33.683,33.683 0 0 0 -8.25,2.9 8.157,8.157 0 0 0 -2.75,2.3 5.398,5.398 0 0 0 -0.9,3.2 5.852,5.852 0 0 0 1.25,3.85 4.202,4.202 0 0 0 3.4,1.5 9.305,9.305 0 0 0 3.75,-1.05 38.231,38.231 0 0 1 11.9,-2.9 6.598,6.598 0 0 1 7.7,7.7 v 1.75 h -2.5 a 74.953,74.953 0 0 0 -16.05,1.35 16,16 0 0 0 -8.5,4.3 11.75,11.75 0 0 0 -2.65,8.2 13.7,13.7 0 0 0 2.25,7.65 15.003,15.003 0 0 0 6,5.65 19.153,19.153 0 0 0 8.7,1.9 14.998,14.998 0 0 0 7.9,-2 11.805,11.805 0 0 0 5,-5.55 v 0.45 a 6.501,6.501 0 0 0 1.85,5 6.702,6.702 0 0 0 5,1.9 6.904,6.904 0 0 0 5,-1.8 6.697,6.697 0 0 0 1.85,-5 z m -13.85,8.45 a 10.646,10.646 0 0 1 -2.6,7.35 8.852,8.852 0 0 1 -6.85,2.85 6.304,6.304 0 0 1 -4.45,-1.7 5.75,5.75 0 0 1 -1.8,-4.4 4.55,4.55 0 0 1 3.15,-4.5 33.724,33.724 0 0 1 10.9,-1.25 h 1.65 z"
     fill="#000638"
     id="path22" />
  <path
     d="m 400.82471,154.2 a 4.995,4.995 0 0 1 1.35,3.65 4.998,4.998 0 0 1 -2.2,4.25 10.354,10.354 0 0 1 -6.35,1.15 h -2.7 c -11.2,-0.9 -16.8,-6.767 -16.8,-17.6 V 126.4 h -3.8 a 7.403,7.403 0 0 1 -5,-1.35 5.003,5.003 0 0 1 -1.65,-4 5.001,5.001 0 0 1 1.65,-4.1 7.394,7.394 0 0 1 5,-1.4 h 3.85 v -7.5 a 6.6,6.6 0 0 1 1.95,-5 7.596,7.596 0 0 1 5.3,-2 7.494,7.494 0 0 1 5.3,1.8 6.747,6.747 0 0 1 1.9,5 v 7.5 h 6.7 c 4.35,0 6.5,1.85 6.5,5.5 a 5,5 0 0 1 -1.6,4 7.654,7.654 0 0 1 -5,1.35 h -6.6 v 20 a 6.352,6.352 0 0 0 1.35,4.4 5.454,5.454 0 0 0 3.95,1.65 h 2.7 a 6.747,6.747 0 0 1 4.2,1.95 z"
     fill="#000638"
     id="path24" />
  <path
     fill-rule="evenodd"
     clip-rule="evenodd"
     d="m 449.77471,154.2 a 6.3,6.3 0 0 0 -1.2,-3.95 3.948,3.948 0 0 0 -2.95,-1.55 6.384,6.384 0 0 0 -2.2,0.45 l -2.6,1 a 44.861,44.861 0 0 1 -5,1.85 17.28,17.28 0 0 1 -5,0.65 11.55,11.55 0 0 1 -8,-2.55 12.751,12.751 0 0 1 -3.45,-8.2 h 26.9 a 3.552,3.552 0 0 0 2.85,-1.1 4.448,4.448 0 0 0 1,-3.2 26.56,26.56 0 0 0 -2.7,-12.3 19.445,19.445 0 0 0 -7.5,-8.05 21.943,21.943 0 0 0 -11.3,-2.85 23.145,23.145 0 0 0 -12.05,3.15 21.646,21.646 0 0 0 -8.25,8.7 28.797,28.797 0 0 0 0,25.8 20.896,20.896 0 0 0 8.8,8.5 28.456,28.456 0 0 0 13.4,2.95 31.983,31.983 0 0 0 8,-1.1 32.546,32.546 0 0 0 7.55,-2.8 7.848,7.848 0 0 0 2.7,-2.35 5.298,5.298 0 0 0 1,-3.05 z m -30.5,-19.5 a 12.496,12.496 0 0 1 3,-7.65 8.648,8.648 0 0 1 6.6,-2.65 7.898,7.898 0 0 1 6.4,2.6 12.695,12.695 0 0 1 2.55,7.7 z"
     fill="#000638"
     id="path26" />
  <path
     d="m 478.32471,107.95 a 9.051,9.051 0 0 0 -1.75,6 v 1.6 h 6.75 c 4.35,0 6.5,1.85 6.5,5.5 0,3.65 -2.15,5.35 -6.5,5.35 h -6.75 v 30 a 6.35,6.35 0 0 1 -2.05,5 7.85,7.85 0 0 1 -5,1.75 7.907,7.907 0 0 1 -5,-1.75 6.201,6.201 0 0 1 -2.05,-5 v -30 h -3.85 c -4.3,0 -6.45,-1.75 -6.45,-5.35 0,-3.6 2.15,-5.5 6.45,-5.5 h 3.85 a 20,20 0 0 1 5,-14.5 20.798,20.798 0 0 1 14,-5.95 h 4.25 c 4.4,0 6.6,1.667 6.6,5 0,3.35 -1.85,5 -5.55,5.5 h -2.5 a 7.651,7.651 0 0 0 -5.95,2.35 z"
     fill="#000638"
     id="path28" />
  <path
     fill-rule="evenodd"
     clip-rule="evenodd"
     d="m 494.72471,151.95 a 20.9,20.9 0 0 0 8.75,8.55 30.45,30.45 0 0 0 26.35,0 21.2,21.2 0 0 0 8.75,-8.55 29.354,29.354 0 0 0 0,-26.05 21.1,21.1 0 0 0 -8.75,-8.5 30.45,30.45 0 0 0 -26.35,0 20.795,20.795 0 0 0 -8.75,8.5 29.347,29.347 0 0 0 0,26.05 z m 29.75,-23.05 a 15.657,15.657 0 0 1 2.75,10 c 0,9.05 -3.55,13.7 -10.6,13.7 -7.05,0 -10.55,-4.55 -10.55,-13.55 0,-9 3.5,-13.55 10.55,-13.55 a 9.5,9.5 0 0 1 7.85,3.4 z"
     fill="#000638"
     id="path30" />
  <path
     d="m 583.22471,116.05 a 5.747,5.747 0 0 1 1.65,4.45 6.597,6.597 0 0 1 -1.5,5 9.15,9.15 0 0 1 -5.5,1.9 l -2.9,0.3 a 10.999,10.999 0 0 0 -7.65,3.45 11.404,11.404 0 0 0 -2.35,7.4 v 18.35 a 6.201,6.201 0 0 1 -2.05,5 7.847,7.847 0 0 1 -5,1.75 8.001,8.001 0 0 1 -5.25,-1.75 6.35,6.35 0 0 1 -2.05,-5 v -35.85 a 5.951,5.951 0 0 1 2.1,-5 7.999,7.999 0 0 1 5,-1.75 6.8,6.8 0 0 1 5,1.7 5.748,5.748 0 0 1 1.95,4.65 v 2.6 a 13.45,13.45 0 0 1 5.25,-6.35 16.298,16.298 0 0 1 7.65,-2.5 h 1.3 a 6.198,6.198 0 0 1 4.35,1.65 z m 75.75,3.05 a 22.648,22.648 0 0 1 4.15,15 v 22.2 a 6.302,6.302 0 0 1 -2,5 7.796,7.796 0 0 1 -5,1.75 7.952,7.952 0 0 1 -5,-1.75 6.2,6.2 0 0 1 -2.1,-5 v -22.2 a 9.997,9.997 0 0 0 -1.6,-6.45 5.949,5.949 0 0 0 -5,-1.9 8.1,8.1 0 0 0 -6.45,2.8 11.55,11.55 0 0 0 -2.4,7.8 v 20 a 6.302,6.302 0 0 1 -2,5 7.796,7.796 0 0 1 -5,1.75 7.952,7.952 0 0 1 -5,-1.75 6.2,6.2 0 0 1 -2.1,-5 V 134.1 a 9.997,9.997 0 0 0 -1.6,-6.45 5.949,5.949 0 0 0 -5,-1.9 8.1,8.1 0 0 0 -6.45,2.8 11.55,11.55 0 0 0 -2.4,7.8 v 20 a 6.35,6.35 0 0 1 -2.05,5 7.847,7.847 0 0 1 -5,1.75 7.952,7.952 0 0 1 -5,-1.75 6.2,6.2 0 0 1 -2.1,-5 v -35.3 a 5.852,5.852 0 0 1 2.15,-5 8.2,8.2 0 0 1 5.25,-1.75 6.948,6.948 0 0 1 5,1.7 5.698,5.698 0 0 1 1.9,4.65 v 0.95 a 15.353,15.353 0 0 1 6.05,-5.55 17.64,17.64 0 0 1 8.4,-1.95 c 3.005,-0.097 5.978,0.63 8.6,2.1 a 13.349,13.349 0 0 1 5.45,6.65 16.35,16.35 0 0 1 6.25,-6.4 18.602,18.602 0 0 1 9.3,-2.35 15.002,15.002 0 0 1 10.75,5 z"
     fill="#000638"
     id="path32" />
  <path
     fill-rule="evenodd"
     clip-rule="evenodd"
     d="m 716.52471,154.2 a 6.3,6.3 0 0 0 -1.2,-3.95 3.899,3.899 0 0 0 -3.3,-1.55 6.854,6.854 0 0 0 -2.2,0.45 l -2.6,1 a 41.175,41.175 0 0 1 -5,1.85 c -1.624,0.466 -3.31,0.685 -5,0.65 a 11.35,11.35 0 0 1 -7.95,-2.55 12.751,12.751 0 0 1 -3.45,-8.2 h 27.2 a 3.7,3.7 0 0 0 2.85,-1.1 4.695,4.695 0 0 0 1,-3.2 c 0.1,-4.257 -0.826,-8.476 -2.7,-12.3 a 19.54,19.54 0 0 0 -7.55,-8.05 21.943,21.943 0 0 0 -11.3,-2.85 22.844,22.844 0 0 0 -12,3.15 21.002,21.002 0 0 0 -8.25,8.7 29.001,29.001 0 0 0 0,25.8 20.902,20.902 0 0 0 8.8,8.5 28.7,28.7 0 0 0 13.45,2.95 c 2.686,-0.03 5.357,-0.4 7.95,-1.1 a 32.942,32.942 0 0 0 7.6,-2.8 8.351,8.351 0 0 0 2.7,-2.35 4.995,4.995 0 0 0 0.95,-3.05 z m -30.45,-19.5 a 12.453,12.453 0 0 1 2.95,-7.65 h -0.25 a 8.752,8.752 0 0 1 6.9,-2.65 7.997,7.997 0 0 1 6.4,2.6 12.695,12.695 0 0 1 2.55,7.7 z m -425.6,64.3 a 2.85,2.85 0 0 0 -0.85,-2.1 3.048,3.048 0 0 0 -2.25,-0.8 3.1,3.1 0 0 0 -2.2,0.8 3.051,3.051 0 0 0 -0.8,2.15 v 20 a 12.198,12.198 0 0 0 -5,-5.35 16.249,16.249 0 0 0 -15.95,0.5 15.559,15.559 0 0 0 -5.7,6.55 25.299,25.299 0 0 0 0,20 15.961,15.961 0 0 0 5.7,6.7 15.003,15.003 0 0 0 8.45,2.4 14.657,14.657 0 0 0 7.5,-1.85 12.198,12.198 0 0 0 5,-5.35 v 4.05 a 3.304,3.304 0 0 0 0.8,2.2 3.1,3.1 0 0 0 2.2,0.8 3.255,3.255 0 0 0 2.25,-0.8 3.099,3.099 0 0 0 0.85,-2.2 z m -6.1,32.05 a 16.454,16.454 0 0 1 -2.85,10 10.002,10.002 0 0 1 -8.25,3.8 10.002,10.002 0 0 1 -8.25,-3.7 16.048,16.048 0 0 1 -3,-10.35 15.447,15.447 0 0 1 3,-10 11.253,11.253 0 0 1 16.5,0 16.146,16.146 0 0 1 2.85,10.25 z m 47.65,12.2 a 2.451,2.451 0 0 0 -0.6,-1.7 1.75,1.75 0 0 0 -1.5,-0.7 6.447,6.447 0 0 0 -2.6,1.15 35.376,35.376 0 0 1 -4.5,2.1 c -1.604,0.57 -3.298,0.842 -5,0.8 -7.7,0 -11.75,-4.3 -12.2,-12.9 h 24.1 a 2.501,2.501 0 0 0 1.95,-0.65 c 0.447,-0.642 0.659,-1.42 0.6,-2.2 a 18.1,18.1 0 0 0 -4.2,-12.6 14.55,14.55 0 0 0 -11.35,-4.65 16.898,16.898 0 0 0 -8.95,2.4 16.493,16.493 0 0 0 -6.1,6.7 21.907,21.907 0 0 0 -2.2,10 18.852,18.852 0 0 0 5,13.85 17.551,17.551 0 0 0 13.35,5 23.699,23.699 0 0 0 11.55,-3.15 c 1.75,-1.05 2.65,-2.2 2.65,-3.45 z m -26.25,-15.15 a 13.897,13.897 0 0 1 3.4,-8.5 10.449,10.449 0 0 1 7.7,-3 9.248,9.248 0 0 1 7.35,3 12.9,12.9 0 0 1 2.75,8.5 z"
     fill="#000638"
     id="path34" />
  <path
     d="m 340.32471,248.15 a 6.297,6.297 0 0 1 -2.05,-5 v -55 a 6.35,6.35 0 0 1 2.05,-5 8.001,8.001 0 0 1 5,-2.1 7.797,7.797 0 0 1 5,1.7 6.35,6.35 0 0 1 2.05,5 v 55 a 6.3,6.3 0 0 1 -2.05,5 7.85,7.85 0 0 1 -5,1.75 8,8 0 0 1 -5,-1.35 z m 36.15,-64.35 a 12.347,12.347 0 0 1 2.3,7.95 24.498,24.498 0 0 1 -7.2,17.5 4.002,4.002 0 0 1 -3,1.35 4.455,4.455 0 0 1 -2.9,-1.1 3.45,3.45 0 0 1 0,-5 16.848,16.848 0 0 0 4.25,-7.2 8.1,8.1 0 0 1 -5.3,-2.4 7.5,7.5 0 0 1 -2,-5.4 8.2,8.2 0 0 1 2.25,-5.9 7.396,7.396 0 0 1 5.45,-2.55 7.696,7.696 0 0 1 6.15,2.75 z"
     fill="#000638"
     id="path36" />
  <path
     fill-rule="evenodd"
     clip-rule="evenodd"
     d="m 387.72471,186.05 a 6.65,6.65 0 0 0 2.2,5.45 v -0.15 a 10,10 0 0 0 12.1,0 6.852,6.852 0 0 0 2.2,-5.3 6.603,6.603 0 0 0 -2.25,-5 10,10 0 0 0 -12.05,0 6.601,6.601 0 0 0 -2.2,5 z m 0.95,57.1 a 6.297,6.297 0 0 0 2.05,5 8,8 0 0 0 5.05,1.75 7.855,7.855 0 0 0 5,-1.75 6.3,6.3 0 0 0 2.05,-5 v -35 a 6.35,6.35 0 0 0 -2.05,-5 7.85,7.85 0 0 0 -5,-1.75 7.944,7.944 0 0 0 -5,1.75 6.197,6.197 0 0 0 -2.1,5 z"
     fill="#000638"
     id="path38" />
  <path
     d="m 456.52471,206.05 a 22.896,22.896 0 0 1 4.1,15 v 22.2 a 6.4,6.4 0 0 1 -1.95,5 7.401,7.401 0 0 1 -5.35,1.85 7.1,7.1 0 0 1 -5,-1.85 6.4,6.4 0 0 1 -1.95,-5 v -21.7 a 11.299,11.299 0 0 0 -1.75,-7 6.699,6.699 0 0 0 -5.55,-2.25 9.603,9.603 0 0 0 -7.25,2.9 10.697,10.697 0 0 0 -2.75,7.7 v 20 a 6.55,6.55 0 0 1 -1.9,5 7.302,7.302 0 0 1 -5.3,1.85 7.5,7.5 0 0 1 -5.35,-1.85 6.4,6.4 0 0 1 -1.95,-5 v -35.1 a 6.102,6.102 0 0 1 2.05,-5 7.904,7.904 0 0 1 5.35,-1.85 6.697,6.697 0 0 1 5,1.8 5.998,5.998 0 0 1 1.85,4.55 v 1.35 a 16.953,16.953 0 0 1 6.5,-5.85 19.552,19.552 0 0 1 9,-2 15.448,15.448 0 0 1 12.2,5.25 z m 23.8,41.05 a 19.999,19.999 0 0 1 -8.4,-8.45 26.949,26.949 0 0 1 -2.95,-12.85 26.25,26.25 0 0 1 3.15,-13.05 21.694,21.694 0 0 1 8.8,-8.7 26.898,26.898 0 0 1 13.05,-3.05 c 2.618,0.004 5.225,0.357 7.75,1.05 a 26.442,26.442 0 0 1 6.95,2.95 5.999,5.999 0 0 1 3,5.4 6.951,6.951 0 0 1 -1.15,4.1 3.6,3.6 0 0 1 -3.1,1.55 6.302,6.302 0 0 1 -2.35,-0.4 l -2.9,-1.3 a 34.791,34.791 0 0 0 -3.6,-1.65 10.247,10.247 0 0 0 -3.6,-0.55 9.997,9.997 0 0 0 -8.25,3.4 14.997,14.997 0 0 0 -2.85,10 15.398,15.398 0 0 0 2.85,10 10,10 0 0 0 8.25,3.45 11.258,11.258 0 0 0 3.55,-0.55 33.529,33.529 0 0 0 3.75,-1.65 c 1.2,-0.6 2.15,-1 2.85,-1.3 a 5.912,5.912 0 0 1 2.3,-0.45 3.6,3.6 0 0 1 3.05,1.65 6.755,6.755 0 0 1 1.2,4.1 5.7,5.7 0 0 1 -3,5.3 24.702,24.702 0 0 1 -7.1,3 33.49,33.49 0 0 1 -8.45,1.05 26.302,26.302 0 0 1 -12.8,-3.05 z m 40.75,1.05 a 6.2,6.2 0 0 1 -2.1,-5 v -55 a 6.2,6.2 0 0 1 2.1,-5 8.75,8.75 0 0 1 10.35,0 6.197,6.197 0 0 1 2.1,5 v 55 a 6.197,6.197 0 0 1 -2.1,5 8.55,8.55 0 0 1 -10.35,0 z m 67.05,-45.15 a 6.347,6.347 0 0 1 2,5 v 35 a 6,6 0 0 1 -2.1,5 7.551,7.551 0 0 1 -5.3,1.85 6.85,6.85 0 0 1 -5,-1.75 5.9,5.9 0 0 1 -1.85,-4.6 v -0.95 a 14.397,14.397 0 0 1 -5.55,5.6 19.449,19.449 0 0 1 -21.45,-3 22.153,22.153 0 0 1 -4.35,-15 V 208 a 6.5,6.5 0 0 1 1.95,-5 7.651,7.651 0 0 1 5.35,-1.85 7.3,7.3 0 0 1 5,1.85 6.497,6.497 0 0 1 1.95,5 v 22.5 a 9.502,9.502 0 0 0 1.75,6.25 6.9,6.9 0 0 0 5.45,2 8.9,8.9 0 0 0 6.9,-2.9 10.75,10.75 0 0 0 2.6,-7.55 V 208 a 6.5,6.5 0 0 1 1.95,-5 7.402,7.402 0 0 1 5.4,-1.95 7.596,7.596 0 0 1 5.3,1.95 z m 20.8,46.15 a 23.316,23.316 0 0 1 -7.55,-3.1 5.854,5.854 0 0 1 -2.25,-2.3 6.909,6.909 0 0 1 -0.75,-3.25 5.449,5.449 0 0 1 1.25,-3.7 3.9,3.9 0 0 1 3.1,-1.5 c 0.853,0.007 1.698,0.16 2.5,0.45 0.868,0.285 1.72,0.619 2.55,1 a 40.292,40.292 0 0 0 5.3,1.95 c 2.106,0.543 4.276,0.796 6.45,0.75 a 10.26,10.26 0 0 0 5,-1.1 3.15,3.15 0 0 0 1.85,-2.85 2.997,2.997 0 0 0 -0.8,-2.2 8.19,8.19 0 0 0 -3.05,-1.45 c -1.45,-0.45 -3.8,-1 -7,-1.65 a 26.908,26.908 0 0 1 -12.3,-5 11.503,11.503 0 0 1 -3.75,-9.15 12.552,12.552 0 0 1 2.65,-7.75 16.895,16.895 0 0 1 7.25,-5.45 26.395,26.395 0 0 1 10.4,-1.95 31.205,31.205 0 0 1 8.05,1.05 26.778,26.778 0 0 1 7,2.95 5.999,5.999 0 0 1 3,5.4 5.847,5.847 0 0 1 -1.25,3.85 3.953,3.953 0 0 1 -3.1,1.55 11.304,11.304 0 0 1 -5.25,-1.75 25.312,25.312 0 0 0 -4.4,-1.85 14.282,14.282 0 0 0 -4.65,-0.65 8.504,8.504 0 0 0 -4.7,1.1 3.499,3.499 0 0 0 -1.75,3.05 3.302,3.302 0 0 0 2.05,3.05 32.383,32.383 0 0 0 7.75,2.15 c 3.45,0.561 6.811,1.57 10,3 a 12.547,12.547 0 0 1 5.3,4.45 13,13 0 0 1 1.65,6.85 12.701,12.701 0 0 1 -5.3,10.95 25.003,25.003 0 0 1 -15,4.05 50.667,50.667 0 0 1 -10.25,-0.95 z"
     fill="#000638"
     id="path40" />
  <path
     fill-rule="evenodd"
     clip-rule="evenodd"
     d="m 647.12471,186.2 a 6.65,6.65 0 0 0 2.2,5.3 v 0.1 a 10,10 0 0 0 12.1,0 6.849,6.849 0 0 0 2.2,-5.3 6.6,6.6 0 0 0 -2.25,-5.25 10,10 0 0 0 -12.05,0 6.603,6.603 0 0 0 -2.2,5.15 z m 1.15,56.95 a 6.3,6.3 0 0 0 2.05,5 8,8 0 0 0 5.05,1.75 7.855,7.855 0 0 0 5,-1.75 6.3,6.3 0 0 0 2.05,-5 v -35 a 6.35,6.35 0 0 0 -2.05,-5 7.85,7.85 0 0 0 -5,-1.75 7.946,7.946 0 0 0 -5,1.75 6.2,6.2 0 0 0 -2.1,5 z m 26.2,-4.65 a 21.2,21.2 0 0 0 8.75,8.55 29.999,29.999 0 0 0 26.35,0 20.9,20.9 0 0 0 8.75,-8.55 26.198,26.198 0 0 0 3.1,-13 26.501,26.501 0 0 0 -3.1,-13.05 21.1,21.1 0 0 0 -8.75,-8.5 30.898,30.898 0 0 0 -26.35,0 21.4,21.4 0 0 0 -8.75,8.5 26.502,26.502 0 0 0 -3.05,13.05 26.163,26.163 0 0 0 3.05,13 z m 29.75,-23 a 15.796,15.796 0 0 1 2.75,10 c 0,9.05 -3.5,13.75 -10.55,13.75 -7.05,0 -10.6,-4.5 -10.6,-13.55 0,-9.05 3.55,-13.55 10.6,-13.55 a 9.399,9.399 0 0 1 7.8,3.35 z"
     fill="#000638"
     id="path42" />
  <path
     d="m 772.42471,206.05 a 22.902,22.902 0 0 1 4.15,15 v 22.2 a 6.4,6.4 0 0 1 -1.95,5 7.5,7.5 0 0 1 -5.35,1.85 7.302,7.302 0 0 1 -5.3,-1.85 6.349,6.349 0 0 1 -1.9,-5 v -21.7 a 11.005,11.005 0 0 0 -1.8,-7 6.598,6.598 0 0 0 -5.5,-2.25 9.698,9.698 0 0 0 -7.3,2.9 10.898,10.898 0 0 0 -2.7,7.7 v 20 a 6.4,6.4 0 0 1 -1.95,5 7.201,7.201 0 0 1 -5.3,1.85 7.347,7.347 0 0 1 -5.3,-1.85 6.252,6.252 0 0 1 -2,-5 v -35.1 a 6,6 0 0 1 2.1,-5 7.752,7.752 0 0 1 5.3,-1.85 6.698,6.698 0 0 1 5,1.8 6.05,6.05 0 0 1 1.9,4.55 v 1.35 a 16.291,16.291 0 0 1 6.5,-5.85 19.446,19.446 0 0 1 8.95,-2 15.449,15.449 0 0 1 12.45,5.25 z"
     fill="#000638"
     id="path44" />
  <path
     d="m 106.57471,119.3 a 32.179,32.179 0 0 0 -9.600003,1.45 c -15.543,4.7 -25.282,20.093 -22.874,36.151 2.41,16.058 16.236,27.916 32.474003,27.849 3.27,-0.016 6.52,-0.505 9.65,-1.45 15.407,-4.83 24.994,-20.168 22.587,-36.133 -2.407,-15.966 -16.091,-27.795 -32.237,-27.867 z"
     fill="#80829b"
     id="path46" />
  <path
     d="m 97.574707,133.4 a 25,25 0 0 1 -35.534,29.654 25,25 0 0 1 4.584,-46.054 c 13.062,-3.882 26.827,3.412 30.95,16.4 z m 70.800003,78.4 c 3.979,12.928 -3.272,26.636 -16.199,30.62 -12.928,3.985 -26.638,-3.262 -30.627,-16.187 -3.99,-12.926 3.252,-26.639 16.176,-30.633 a 24.499,24.499 0 0 1 30.65,16.2 z M 16.924707,175.6 c -1.694,0.003 -3.38,0.256 -5,0.75 -8.4500002,2.605 -13.4630002,11.282 -11.50000013,19.903 1.96499993,8.621 10.24200013,14.271 18.98600013,12.96 8.744,-1.312 14.999,-9.142 14.347,-17.96 -0.652,-8.817 -7.991,-15.642 -16.833,-15.653"
     fill="#000638"
     id="path48" />
  <path
     d="m 173.02471,145.35 a 11.531,11.531 0 0 0 -3.65,0.55 12.5,12.5 0 0 0 3.65,24.45 13.515,13.515 0 0 0 3.7,-0.55 12.5,12.5 0 0 0 -3.7,-24.45 z"
     fill="#cccdd7"
     id="path50" />
  <path
     d="m 38.724707,48.5 a 27.45,27.45 0 0 0 -8.2,1.25 c -13.893,4.313 -22.1100002,18.607 -18.85,32.783 3.262,14.177 16.901,23.442 31.282,21.249 14.38,-2.192 24.64,-15.1 23.53,-29.604 -1.11,-14.504 -13.215,-25.7 -27.762,-25.678 z"
     fill="#80829b"
     id="path52" />
  <path
     d="m 150.32471,0 a 51.05,51.05 0 0 0 -15.3,2.35 c -24.435,7.607 -39.690003,31.876 -35.950003,57.193 3.739003,25.317 25.359003,44.139 50.950003,44.357 a 52.576,52.576 0 0 0 15.3,-2.3 c 24.518,-7.547 39.856,-31.86 36.109,-57.238 C 197.68671,18.984 175.97771,0.14 150.32471,0"
     fill="#cccdd7"
     id="path54" />
  <path
     d="m 200.97471,29.25 c -11.094,0.005 -20.354,8.468 -21.354,19.517 -1,11.049 6.591,21.037 17.504,23.033 1.286,0.24 2.592,0.358 3.9,0.35 11.094,-0.005 20.354,-8.468 21.353,-19.517 1,-11.05 -6.59,-21.037 -17.503,-23.033 a 20.558,20.558 0 0 0 -3.9,-0.35 z"
     fill="#000638"
     id="path56" />
</svg>
