<svg width="180" height="66" viewBox="0 0 180 66" fill="none" xmlns="http://www.w3.org/2000/svg">
<path d="M27.919 32.3296C27.2534 32.3282 26.5932 32.4274 25.9574 32.6244C22.7923 33.5807 20.8089 36.7133 21.2993 39.9831C21.7884 43.2529 24.6031 45.6669 27.9095 45.6546C28.5752 45.6533 29.2367 45.55 29.8711 45.3503C33.0187 44.3818 34.9843 41.2573 34.4967 38.0011C34.009 34.7449 31.2133 32.3337 27.9204 32.331" fill="#80829B"/>
<path d="M26.0783 35.196C26.7018 37.163 26.0742 39.3107 24.4903 40.6325C22.9063 41.9542 20.6812 42.1879 18.8568 41.2234C17.0337 40.2589 15.9741 38.2878 16.1752 36.2352C16.3762 34.1826 17.7999 32.4546 19.7764 31.8637C22.4349 31.0676 25.2401 32.5524 26.0783 35.1973V35.196Z" fill="#000638"/>
<path d="M40.5011 51.1633C41.3107 53.7973 39.8313 56.5889 37.1973 57.3986C34.5633 58.2082 31.7717 56.7302 30.9607 54.0976C30.1497 51.4635 31.6263 48.6719 34.2603 47.8596C36.8957 47.0526 39.686 48.5306 40.5011 51.1633Z" fill="#000638"/>
<path d="M9.66404 43.7842C9.319 43.7855 8.97667 43.8372 8.64792 43.9363C6.93084 44.4661 5.91065 46.2294 6.31003 47.9818C6.70942 49.7342 8.39118 50.8834 10.1694 50.6158C11.9462 50.3496 13.2177 48.7575 13.086 46.9657C12.9529 45.1725 11.4613 43.7855 9.66404 43.7842Z" fill="#000638"/>
<path d="M41.4463 37.625C41.1923 37.6277 40.9382 37.6658 40.6937 37.7364C39.5024 38.1181 38.7634 39.3095 38.9495 40.547C39.1369 41.7846 40.1938 42.7042 41.445 42.7165C41.7003 42.7178 41.9544 42.6811 42.1975 42.6051C43.3889 42.2234 44.1279 41.032 43.9418 39.7944C43.7543 38.5569 42.6974 37.6372 41.4463 37.625Z" fill="#CCCDD7"/>
<path d="M14.0954 17.9165C13.5303 17.9165 12.9693 17.9994 12.4286 18.161C9.57043 19.025 7.86422 21.947 8.51356 24.8609C9.1629 27.7748 11.9504 29.6943 14.9051 29.2623C17.8583 28.8303 19.9789 26.1922 19.767 23.2145C19.555 20.2367 17.0813 17.9274 14.0968 17.9179" fill="#80829B"/>
<path d="M36.7719 8.03785C35.7164 8.03649 34.6677 8.19815 33.6611 8.51602C28.662 10.0551 25.5389 15.0189 26.3173 20.1919C27.0957 25.3649 31.5405 29.1903 36.7719 29.1903C42.4856 29.0137 47.0241 24.3311 47.0241 18.6147C47.0241 12.8984 42.4842 8.21581 36.7719 8.03921" fill="#CCCDD7"/>
<path d="M47.1287 13.9934C44.7922 13.9975 42.8727 15.8382 42.7695 18.172C42.6662 20.5058 44.4186 22.5082 46.7457 22.7174C49.0727 22.9266 51.1525 21.2679 51.4676 18.9531C51.7828 16.6383 50.2206 14.4852 47.9221 14.0654C47.6612 14.0165 47.395 13.992 47.1287 13.9948" fill="#000638"/>
<path d="M64.0293 19.0522H67.9878C70.6259 19.0522 72.2371 20.4053 72.2371 22.6331C72.2371 24.861 70.6259 26.1977 67.9878 26.1977H66.4623V31.046H64.0293V19.0522ZM66.4623 21.0736V24.175H68.0897C69.1181 24.175 69.7348 23.5759 69.7348 22.5992C69.7348 21.6904 69.1181 21.0736 68.0897 21.0736H66.4623Z" fill="black"/>
<path d="M73.9502 18.1951H76.1264V31.046H73.9502V18.1951Z" fill="black"/>
<path d="M78.2509 28.7149C78.2509 27.4121 79.2616 26.4354 81.1118 26.1271L83.7499 25.6815V25.4587C83.7499 24.5513 83.0639 23.9685 82.0708 23.9685C81.2313 23.9685 80.5806 24.3624 80.1174 24.9968L78.5239 23.7797C79.2955 22.7173 80.563 22.0667 82.1388 22.0667C84.641 22.0667 85.9261 23.5569 85.9261 25.4587V31.0446H83.7499V30.2051C83.2011 30.8735 82.1741 31.3014 81.162 31.3014C79.4314 31.3014 78.2495 30.307 78.2495 28.7149H78.2509ZM81.609 29.5721C82.6033 29.5721 83.322 29.1089 83.7512 28.4242V27.207L81.6945 27.5494C80.7871 27.7029 80.4094 28.0805 80.4094 28.6117C80.4094 29.1944 80.8727 29.5707 81.609 29.5707V29.5721Z" fill="black"/>
<path d="M88.9598 24.3637H87.3486V22.4103H88.9598V20.2517H91.1523V22.4103H93.7904V24.3637H91.1523V27.893C91.1523 28.8521 91.6658 29.2297 92.523 29.2297C93.1234 29.2297 93.5174 29.1618 93.8081 29.0409V30.9427C93.3801 31.1315 92.8653 31.2171 92.1467 31.2171C89.9881 31.2171 88.9598 29.9999 88.9598 27.893V24.3637Z" fill="black"/>
<path d="M99.7536 31.3883C96.6862 31.3883 94.9556 29.2461 94.9556 26.7275C94.9556 24.2089 96.5667 22.0667 99.3936 22.0667C101.793 22.0667 103.368 23.6941 103.368 25.9559C103.368 26.4354 103.301 26.881 103.231 27.1731H97.1834C97.3886 28.7842 98.3829 29.4349 99.736 29.4349C100.679 29.4349 101.501 29.0233 101.964 28.4065L103.523 29.64C102.718 30.72 101.381 31.3883 99.7536 31.3883ZM97.2513 25.5973H101.226C101.192 24.7238 100.558 23.8489 99.342 23.8489C98.2281 23.8489 97.4918 24.4657 97.2513 25.5973Z" fill="black"/>
<path d="M106.042 22.4104V21.503C106.042 19.6691 107.259 18.1965 109.418 18.1965C110.206 18.1965 110.874 18.3854 111.423 18.6761L110.498 20.4923C110.241 20.3035 109.897 20.15 109.453 20.15C108.717 20.15 108.236 20.6635 108.236 21.4527V22.4118H110.874V24.3653H108.236V31.0475H106.043V24.3653H104.432V22.4118H106.043L106.042 22.4104Z" fill="black"/>
<path d="M120.88 26.7275C120.88 29.3153 118.961 31.3883 116.152 31.3883C113.342 31.3883 111.423 29.3153 111.423 26.7275C111.423 24.1396 113.342 22.0667 116.152 22.0667C118.961 22.0667 120.88 24.1396 120.88 26.7275ZM118.619 26.7275C118.619 25.2196 117.574 24.1233 116.186 24.1233C114.797 24.1233 113.683 25.2196 113.683 26.7275C113.683 28.2354 114.746 29.3316 116.186 29.3316C117.626 29.3316 118.619 28.2177 118.619 26.7275Z" fill="black"/>
<path d="M122.868 22.4104H125.044V23.2676C125.609 22.6848 126.347 22.2393 127.322 22.2393C127.613 22.2393 127.871 22.2909 128.076 22.3588V24.5011C127.802 24.4332 127.511 24.3815 127.117 24.3815C126.055 24.3815 125.369 24.9643 125.044 25.5118V31.0461H122.868V22.4104Z" fill="black"/>
<path d="M129.824 22.4103H132V23.061C132.583 22.4959 133.32 22.0667 134.382 22.0667C135.444 22.0667 136.439 22.5462 137.004 23.4713C137.62 22.7173 138.442 22.0667 139.9 22.0667C141.682 22.0667 143.087 23.3001 143.087 25.7331V31.0446H140.894V25.8187C140.894 24.774 140.329 24.122 139.352 24.122C138.376 24.122 137.896 24.7727 137.554 25.3555C137.571 25.475 137.571 25.5959 137.571 25.7317V31.0433H135.379V25.8173C135.379 24.7727 134.814 24.1206 133.837 24.1206C132.86 24.1206 132.329 24.8569 132.003 25.4057V31.0433H129.827V22.4076L129.824 22.4103Z" fill="black"/>
<path d="M149.752 31.3883C146.684 31.3883 144.954 29.2461 144.954 26.7275C144.954 24.2089 146.565 22.0667 149.392 22.0667C151.791 22.0667 153.366 23.6941 153.366 25.9559C153.366 26.4354 153.299 26.881 153.229 27.1731H147.181C147.387 28.7842 148.381 29.4349 149.734 29.4349C150.677 29.4349 151.499 29.0233 151.962 28.4065L153.521 29.64C152.716 30.72 151.379 31.3883 149.752 31.3883ZM147.249 25.5973H151.224C151.19 24.7238 150.556 23.8489 149.34 23.8489C148.226 23.8489 147.49 24.4657 147.249 25.5973Z" fill="black"/>
<path d="M67.3371 42.6282C68.5027 42.6282 69.3422 42.9882 70.0105 43.6565V38.7566H72.2031V51.6075H70.0105V50.9229C69.3422 51.5912 68.5027 51.9512 67.3371 51.9512C64.6134 51.9512 62.9507 49.8089 62.9507 47.2904C62.9507 44.7718 64.6121 42.6295 67.3371 42.6295V42.6282ZM67.6455 49.8932C68.6222 49.8932 69.4278 49.4816 70.0105 48.6937V45.8844C69.4278 45.0965 68.6222 44.6849 67.6455 44.6849C66.1716 44.6849 65.2302 45.7811 65.2302 47.289C65.2302 48.7969 66.1729 49.8932 67.6455 49.8932Z" fill="black"/>
<path d="M78.987 51.9499C75.9196 51.9499 74.189 49.8076 74.189 47.289C74.189 44.7704 75.8001 42.6282 78.627 42.6282C81.026 42.6282 82.6018 44.2556 82.6018 46.5174C82.6018 46.9969 82.5339 47.4425 82.4646 47.7346H76.4168C76.622 49.3457 77.6163 49.9964 78.9693 49.9964C79.9121 49.9964 80.734 49.5848 81.1972 48.9681L82.7567 50.2015C81.9511 51.2815 80.6144 51.9499 78.987 51.9499ZM76.4861 46.1588H80.4609C80.427 45.2853 79.7926 44.4105 78.5768 44.4105C77.4628 44.4105 76.7265 45.0272 76.4861 46.1588Z" fill="black"/>
<path d="M89.3535 38.7566H91.5298V51.6075H89.3535V38.7566Z" fill="black"/>
<path d="M93.2769 44.5475L94.8187 39.6123H97.2856L95.2982 44.5475H93.2769Z" fill="black"/>
<path d="M98.708 40.0417C98.708 39.2701 99.3587 38.6194 100.13 38.6194C100.902 38.6194 101.535 39.2701 101.535 40.0417C101.535 40.8133 100.901 41.464 100.13 41.464C99.3601 41.464 98.708 40.8133 98.708 40.0417ZM99.034 42.9719H101.21V51.6075H99.034V42.9719Z" fill="black"/>
<path d="M103.814 42.9719H105.99V43.6565C106.589 43.0737 107.395 42.6282 108.543 42.6282C110.411 42.6282 111.901 43.9133 111.901 46.4658V51.6062H109.708V46.5514C109.708 45.4035 109.058 44.6835 107.995 44.6835C106.933 44.6835 106.316 45.4198 105.99 45.9686V51.6062H103.814V42.9705V42.9719Z" fill="black"/>
<path d="M120.469 48.9L122.165 50.2028C121.36 51.2651 120.092 51.9511 118.515 51.9511C115.533 51.9511 113.752 49.8088 113.752 47.2902C113.752 44.7717 115.535 42.6294 118.515 42.6294C120.091 42.6294 121.36 43.3141 122.165 44.3777L120.469 45.6805C120.057 45.08 119.372 44.6861 118.481 44.6861C117.059 44.6861 116.014 45.7824 116.014 47.2902C116.014 48.7981 117.059 49.8944 118.517 49.8944C119.374 49.8944 120.058 49.5004 120.47 48.9H120.469Z" fill="black"/>
<path d="M123.793 38.7566H125.969V51.6075H123.793V38.7566Z" fill="black"/>
<path d="M134.261 42.9719H136.454V47.77C136.454 50.3578 134.946 51.9513 132.41 51.9513C129.874 51.9513 128.383 50.3578 128.383 47.77V42.9719H130.576V47.8719C130.576 49.123 131.227 49.8932 132.426 49.8932C133.626 49.8932 134.26 49.1216 134.26 47.8719V42.9719H134.261Z" fill="black"/>
<path d="M139.487 49.0536C140.018 49.722 140.653 50.2015 141.475 50.2015C142.177 50.2015 142.537 49.7899 142.537 49.2764C142.537 47.7685 138.407 48.3337 138.407 45.3016C138.407 43.7761 139.692 42.6282 141.491 42.6282C142.81 42.6282 144.01 43.2626 144.626 44.1021L143.188 45.3695C142.742 44.8207 142.177 44.3751 141.509 44.3751C140.84 44.3751 140.498 44.7514 140.498 45.197C140.498 46.6709 144.628 46.1561 144.628 49.1379C144.594 50.9541 143.137 51.9471 141.509 51.9471C139.967 51.9471 138.871 51.3304 138.047 50.3537L139.486 49.0509L139.487 49.0536Z" fill="black"/>
<path d="M146.307 40.0417C146.307 39.2701 146.957 38.6194 147.729 38.6194C148.501 38.6194 149.134 39.2701 149.134 40.0417C149.134 40.8133 148.499 41.464 147.729 41.464C146.959 41.464 146.307 40.8133 146.307 40.0417ZM146.633 42.9719H148.809V51.6075H146.633V42.9719Z" fill="black"/>
<path d="M160.254 47.289C160.254 49.8755 158.334 51.9499 155.525 51.9499C152.716 51.9499 150.796 49.8769 150.796 47.289C150.796 44.7012 152.716 42.6282 155.525 42.6282C158.334 42.6282 160.254 44.7012 160.254 47.289ZM157.992 47.289C157.992 45.7811 156.947 44.6849 155.559 44.6849C154.171 44.6849 153.057 45.7811 153.057 47.289C153.057 48.7969 154.119 49.8932 155.559 49.8932C156.999 49.8932 157.992 48.7792 157.992 47.289Z" fill="black"/>
<path d="M162.241 42.9719H164.417V43.6565C165.017 43.0737 165.822 42.6282 166.97 42.6282C168.838 42.6282 170.328 43.9133 170.328 46.4658V51.6062H168.136V46.5514C168.136 45.4035 167.485 44.6835 166.423 44.6835C165.36 44.6835 164.743 45.4198 164.417 45.9686V51.6062H162.241V42.9705V42.9719Z" fill="black"/>
</svg>
