<svg width="360" height="55" viewBox="0 0 360 55" fill="none" xmlns="http://www.w3.org/2000/svg">
<path d="M67.472 38H70.88V31.208H73.016C76.712 31.208 78.968 29.312 78.968 26.216C78.968 23.096 76.712 21.2 73.016 21.2H67.472V38ZM73.16 24.032C74.6 24.032 75.464 24.896 75.464 26.168C75.464 27.536 74.6 28.376 73.16 28.376H70.88V24.032H73.16ZM81.3787 38H84.4267V20H81.3787V38ZM91.4898 38.36C92.9058 38.36 94.3458 37.76 95.1138 36.824V38H98.1618V30.176C98.1618 27.512 96.3618 25.424 92.8578 25.424C90.6498 25.424 88.8738 26.336 87.7938 27.824L90.0258 29.528C90.6738 28.64 91.5858 28.088 92.7618 28.088C94.1538 28.088 95.1138 28.904 95.1138 30.176V30.488L91.4178 31.112C88.8258 31.544 87.4098 32.912 87.4098 34.736C87.4098 36.968 89.0658 38.36 91.4898 38.36ZM90.4338 34.592C90.4338 33.848 90.9618 33.32 92.2338 33.104L95.1138 32.624V34.328C94.5138 35.288 93.5058 35.936 92.1138 35.936C91.0818 35.936 90.4338 35.408 90.4338 34.592ZM102.42 33.584C102.42 36.536 103.86 38.24 106.884 38.24C107.892 38.24 108.612 38.12 109.212 37.856V35.192C108.804 35.36 108.252 35.456 107.412 35.456C106.212 35.456 105.492 34.928 105.492 33.584V28.64H109.188V25.904H105.492V22.88H102.42V25.904H100.164V28.64H102.42V33.584ZM122.819 36.032L120.635 34.304C119.987 35.168 118.835 35.744 117.515 35.744C115.619 35.744 114.227 34.832 113.939 32.576H122.411C122.507 32.168 122.603 31.544 122.603 30.872C122.603 27.704 120.395 25.424 117.035 25.424C113.075 25.424 110.819 28.376 110.819 31.952C110.819 35.48 113.243 38.48 117.539 38.48C119.819 38.48 121.691 37.544 122.819 36.032ZM116.963 27.92C118.667 27.92 119.555 29.144 119.603 30.368H114.035C114.371 28.784 115.403 27.92 116.963 27.92ZM124.094 25.904V28.64H126.35V38H129.422V28.64H133.118V25.904H129.422V24.56C129.422 23.456 130.094 22.736 131.126 22.736C131.75 22.736 132.23 22.952 132.59 23.216L133.886 20.672C133.118 20.264 132.182 20 131.078 20C128.054 20 126.35 22.064 126.35 24.632V25.904H124.094ZM140.506 25.424C136.57 25.424 133.882 28.328 133.882 31.952C133.882 35.576 136.57 38.48 140.506 38.48C144.442 38.48 147.13 35.576 147.13 31.952C147.13 28.328 144.442 25.424 140.506 25.424ZM140.554 35.6C138.538 35.6 137.05 34.064 137.05 31.952C137.05 29.84 138.538 28.304 140.554 28.304C142.498 28.304 143.962 29.84 143.962 31.952C143.962 34.04 142.498 35.6 140.554 35.6ZM149.91 38H152.958V30.248C153.414 29.48 154.374 28.664 155.862 28.664C156.414 28.664 156.822 28.736 157.206 28.832V25.832C156.918 25.736 156.558 25.664 156.15 25.664C154.782 25.664 153.75 26.288 152.958 27.104V25.904H149.91V38ZM159.66 38H162.708V30.104C163.164 29.336 163.884 28.304 165.276 28.304C166.644 28.304 167.436 29.216 167.436 30.68V38H170.508V30.56C170.508 30.368 170.508 30.2 170.484 30.032C170.964 29.216 171.684 28.304 173.004 28.304C174.372 28.304 175.164 29.216 175.164 30.68V38H178.236V30.56C178.236 27.152 176.268 25.424 173.772 25.424C171.732 25.424 170.58 26.336 169.716 27.392C168.924 26.096 167.58 25.424 166.044 25.424C164.556 25.424 163.524 26.024 162.708 26.816V25.904H159.66V38ZM192.851 36.032L190.667 34.304C190.019 35.168 188.867 35.744 187.547 35.744C185.651 35.744 184.259 34.832 183.971 32.576H192.443C192.539 32.168 192.635 31.544 192.635 30.872C192.635 27.704 190.427 25.424 187.067 25.424C183.107 25.424 180.851 28.376 180.851 31.952C180.851 35.48 183.275 38.48 187.571 38.48C189.851 38.48 191.723 37.544 192.851 36.032ZM186.995 27.92C188.699 27.92 189.587 29.144 189.635 30.368H184.067C184.403 28.784 185.435 27.92 186.995 27.92ZM201.218 31.952C201.218 35.48 203.546 38.48 207.362 38.48C208.994 38.48 210.17 37.976 211.106 37.04V38H214.178V20H211.106V26.864C210.17 25.928 208.994 25.424 207.362 25.424C203.546 25.424 201.218 28.424 201.218 31.952ZM204.41 31.952C204.41 29.84 205.73 28.304 207.794 28.304C209.162 28.304 210.29 28.88 211.106 29.984V33.92C210.29 35.024 209.162 35.6 207.794 35.6C205.73 35.6 204.41 34.064 204.41 31.952ZM228.968 36.032L226.784 34.304C226.136 35.168 224.984 35.744 223.664 35.744C221.768 35.744 220.376 34.832 220.088 32.576H228.56C228.656 32.168 228.752 31.544 228.752 30.872C228.752 27.704 226.544 25.424 223.184 25.424C219.224 25.424 216.968 28.376 216.968 31.952C216.968 35.48 219.392 38.48 223.688 38.48C225.968 38.48 227.84 37.544 228.968 36.032ZM223.112 27.92C224.816 27.92 225.704 29.144 225.752 30.368H220.184C220.52 28.784 221.552 27.92 223.112 27.92ZM238.199 38H241.247V20H238.199V38ZM246.53 28.112L249.314 21.2H245.858L243.698 28.112H246.53ZM253.282 23.792C254.362 23.792 255.25 22.88 255.25 21.8C255.25 20.72 254.362 19.808 253.282 19.808C252.202 19.808 251.29 20.72 251.29 21.8C251.29 22.88 252.202 23.792 253.282 23.792ZM251.746 38H254.794V25.904H251.746V38ZM258.449 38H261.497V30.104C261.953 29.336 262.769 28.304 264.305 28.304C265.793 28.304 266.705 29.312 266.705 30.92V38H269.777V30.8C269.777 27.224 267.689 25.424 265.073 25.424C263.465 25.424 262.337 26.048 261.497 26.864V25.904H258.449V38ZM279.046 35.6C277.006 35.6 275.542 34.088 275.542 31.952C275.542 29.84 277.006 28.304 278.998 28.304C280.246 28.304 281.206 28.856 281.782 29.696L284.158 27.872C283.03 26.384 281.254 25.424 279.046 25.424C274.87 25.424 272.374 28.424 272.374 31.952C272.374 35.48 274.87 38.48 279.046 38.48C281.254 38.48 283.03 37.52 284.158 36.032L281.782 34.208C281.206 35.048 280.246 35.6 279.046 35.6ZM286.433 38H289.481V20H286.433V38ZM301.105 32.768C301.105 34.52 300.193 35.6 298.537 35.6C296.857 35.6 295.945 34.52 295.945 32.768V25.904H292.873V32.624C292.873 36.248 294.961 38.48 298.513 38.48C302.065 38.48 304.177 36.248 304.177 32.624V25.904H301.105V32.768ZM306.401 36.248C307.553 37.616 309.089 38.48 311.249 38.48C313.529 38.48 315.569 37.088 315.617 34.544C315.617 30.368 309.833 31.088 309.833 29.024C309.833 28.4 310.289 27.872 311.249 27.872C312.185 27.872 312.977 28.496 313.601 29.264L315.617 27.488C314.753 26.312 313.073 25.424 311.225 25.424C308.705 25.424 306.905 27.032 306.905 29.168C306.905 33.416 312.689 32.624 312.689 34.736C312.689 35.456 312.185 36.032 311.201 36.032C310.049 36.032 309.161 35.36 308.417 34.424L306.401 36.248ZM319.962 23.792C321.042 23.792 321.93 22.88 321.93 21.8C321.93 20.72 321.042 19.808 319.962 19.808C318.882 19.808 317.97 20.72 317.97 21.8C317.97 22.88 318.882 23.792 319.962 23.792ZM318.426 38H321.474V25.904H318.426V38ZM330.889 25.424C326.953 25.424 324.265 28.328 324.265 31.952C324.265 35.576 326.953 38.48 330.889 38.48C334.825 38.48 337.513 35.576 337.513 31.952C337.513 28.328 334.825 25.424 330.889 25.424ZM330.937 35.6C328.921 35.6 327.433 34.064 327.433 31.952C327.433 29.84 328.921 28.304 330.937 28.304C332.881 28.304 334.345 29.84 334.345 31.952C334.345 34.04 332.881 35.6 330.937 35.6ZM340.293 38H343.341V30.104C343.797 29.336 344.613 28.304 346.149 28.304C347.637 28.304 348.549 29.312 348.549 30.92V38H351.621V30.8C351.621 27.224 349.533 25.424 346.917 25.424C345.309 25.424 344.181 26.048 343.341 26.864V25.904H340.293V38Z" fill="black"/>
<path d="M23.9583 26.246C23.2266 26.2451 22.499 26.3526 21.8002 26.565C18.3061 27.599 16.1166 30.9855 16.6581 34.5183C17.1997 38.051 20.3081 40.6598 23.9583 40.6451C24.6934 40.6415 25.424 40.5341 26.1277 40.3261C29.5911 39.2635 31.7465 35.8892 31.2053 32.3768C30.6642 28.8643 27.588 26.262 23.9583 26.246Z" fill="#80829B"/>
<path d="M21.935 29.348C22.6256 31.4771 21.9317 33.8035 20.1793 35.2349C18.4268 36.6661 15.9637 36.9179 13.9468 35.872C11.9299 34.8261 10.7597 32.6903 10.9858 30.4674C11.2119 28.2446 12.7892 26.3764 14.9773 25.74C17.9137 24.886 21.0081 26.4906 21.935 29.348Z" fill="#000638"/>
<path d="M37.8513 46.596C38.7459 49.4403 37.1157 52.456 34.2096 53.3326C31.3035 54.2092 28.2214 52.6149 27.3246 49.7713C26.4277 46.9276 28.0556 43.9108 30.961 43.032C32.3576 42.6096 33.8686 42.7478 35.161 43.4164C36.4534 44.0849 37.4212 45.2288 37.8513 46.596Z" fill="#000638"/>
<path d="M3.80462 38.632C3.4237 38.6327 3.04496 38.6883 2.68059 38.797C0.781115 39.3701 -0.345927 41.2792 0.0955354 43.1757C0.536992 45.0724 2.39771 46.3155 4.36341 46.0269C6.32914 45.7383 7.73528 44.0157 7.58866 42.0758C7.4421 40.1359 5.79232 38.6344 3.80462 38.632Z" fill="#000638"/>
<path d="M38.8966 31.977C38.6182 31.9741 38.3411 32.0149 38.076 32.098C36.7469 32.4972 35.9159 33.7875 36.1211 35.1331C36.3264 36.4787 37.5063 37.4752 38.8966 37.477C39.1782 37.4746 39.4581 37.4338 39.7284 37.356C41.0595 36.9563 41.8907 35.6629 41.6824 34.3156C41.4741 32.9683 40.2889 31.9735 38.8966 31.977Z" fill="#CCCDD7"/>
<path d="M8.7054 10.6701C8.08027 10.6698 7.45873 10.7625 6.86201 10.9451C3.73889 11.894 1.8913 15.0386 2.62456 18.1574C3.35781 21.2762 6.42395 23.3145 9.65681 22.8322C12.8896 22.3499 15.1959 19.5102 14.9463 16.3192C14.6967 13.1282 11.9756 10.6652 8.7054 10.6701Z" fill="#80829B"/>
<path d="M33.7936 0C32.6269 0.000235714 31.4671 0.174574 30.3541 0.517C24.861 2.19055 21.4316 7.52978 22.2723 13.0995C23.113 18.6692 27.9733 22.8101 33.7262 22.858C34.8919 22.8562 36.0509 22.6857 37.1657 22.352C42.6773 20.6916 46.1254 15.3427 45.2831 9.75957C44.4408 4.17646 39.5604 0.0308604 33.7936 0Z" fill="#CCCDD7"/>
<path d="M45.1798 6.43501C42.6859 6.4361 40.6042 8.29806 40.3795 10.7288C40.1547 13.1595 41.8611 15.3569 44.3144 15.796C44.6034 15.849 44.8971 15.8748 45.1911 15.873C47.6851 15.872 49.7668 14.01 49.9915 11.5793C50.2163 9.14851 48.5099 6.95117 46.0566 6.51201C45.7676 6.45913 45.4739 6.43332 45.1798 6.43501Z" fill="#000638"/>
</svg>
