<svg width="25" height="25" viewBox="0 0 25 25" fill="none" xmlns="http://www.w3.org/2000/svg">
<path d="M0.5 3.35027C0.517966 4.81489 1.63358 6.02867 3.08324 6.16082C4.5329 6.29296 5.84712 5.30068 6.12635 3.86315C6.15819 3.69185 6.1737 3.51788 6.17268 3.34361C6.16897 1.87042 5.05042 0.642722 3.59225 0.511371C2.13408 0.380021 0.816622 1.38829 0.552954 2.83739C0.519306 3.00629 0.501576 3.17802 0.5 3.35027" fill="#000091"/>
<path d="M9.66309 3.35027C9.68105 4.81489 10.7967 6.02867 12.2463 6.16082C13.696 6.29296 15.0102 5.30068 15.2894 3.86315C15.3213 3.69185 15.3368 3.51788 15.3358 3.34361C15.3321 1.87042 14.2135 0.642722 12.7553 0.511371C11.2972 0.380021 9.97971 1.38829 9.71604 2.83739C9.68239 3.00629 9.66466 3.17802 9.66309 3.35027" fill="#000091"/>
<path d="M18.8271 3.35027C18.8451 4.81489 19.9607 6.02867 21.4104 6.16082C22.8601 6.29296 24.1743 5.30068 24.4535 3.86315C24.4853 3.69185 24.5009 3.51788 24.4998 3.34361C24.4961 1.87042 23.3776 0.642722 21.9194 0.511371C20.4612 0.380021 19.1438 1.38829 18.8801 2.83739C18.8465 3.00629 18.8287 3.17802 18.8271 3.35027" fill="#000091"/>
<path d="M0.5 12.5141C0.517966 13.9787 1.63358 15.1925 3.08324 15.3246C4.5329 15.4568 5.84712 14.4645 6.12635 13.027C6.15819 12.8557 6.1737 12.6817 6.17268 12.5074C6.16897 11.0342 5.05042 9.80654 3.59225 9.67519C2.13408 9.54384 0.816622 10.5521 0.552954 12.0012C0.519306 12.1701 0.501576 12.3418 0.5 12.5141" fill="#000091"/>
<path d="M9.66309 12.5141C9.68105 13.9787 10.7967 15.1925 12.2463 15.3246C13.696 15.4568 15.0102 14.4645 15.2894 13.027C15.3213 12.8557 15.3368 12.6817 15.3358 12.5074C15.3321 11.0342 14.2135 9.80654 12.7553 9.67519C11.2972 9.54384 9.97971 10.5521 9.71604 12.0012C9.68239 12.1701 9.66466 12.3418 9.66309 12.5141" fill="#000091"/>
<path d="M18.8271 12.5141C18.8451 13.9787 19.9607 15.1925 21.4104 15.3246C22.8601 15.4568 24.1743 14.4645 24.4535 13.027C24.4853 12.8557 24.5009 12.6817 24.4998 12.5074C24.4961 11.0342 23.3776 9.80654 21.9194 9.67519C20.4612 9.54384 19.1438 10.5521 18.8801 12.0012C18.8465 12.1701 18.8287 12.3418 18.8271 12.5141" fill="#000091"/>
<path d="M0.5 21.6777C0.517966 23.1423 1.63358 24.3561 3.08324 24.4882C4.5329 24.6204 5.84712 23.6281 6.12635 22.1905C6.15819 22.0192 6.1737 21.8453 6.17268 21.671C6.16897 20.1978 5.05042 18.9701 3.59225 18.8388C2.13408 18.7074 0.816622 19.7157 0.552954 21.1648C0.519306 21.3337 0.501576 21.5054 0.5 21.6777" fill="#000091"/>
<path d="M10 21.3505C10.018 22.8151 11.1336 24.0289 12.5832 24.1611C14.0329 24.2932 15.3471 23.3009 15.6263 21.8634C15.6582 21.6921 15.6737 21.5181 15.6727 21.3439C15.669 19.8707 14.5504 18.643 13.0923 18.5116C11.6341 18.3803 10.3166 19.3885 10.053 20.8376C10.0193 21.0065 10.0016 21.1783 10 21.3505" fill="#000091"/>
<path d="M18.8271 21.6777C18.8451 23.1423 19.9607 24.3561 21.4104 24.4882C22.8601 24.6204 24.1743 23.6281 24.4535 22.1905C24.4853 22.0192 24.5009 21.8453 24.4998 21.671C24.4961 20.1978 23.3776 18.9701 21.9194 18.8388C20.4612 18.7074 19.1438 19.7157 18.8801 21.1648C18.8465 21.3337 18.8287 21.5054 18.8271 21.6777" fill="#000091"/>
</svg>
