<svg width="382" height="256" viewBox="0 0 382 256" fill="none" xmlns="http://www.w3.org/2000/svg">
<path d="M38.5771 19.2411C38.4733 18.6671 37.1256 12.5232 27.6262 13.5727C27.6262 13.5727 32.354 13.4525 33.454 15.3802C33.454 15.3802 29.9227 13.314 27.4623 14.5002C25.0019 15.6863 24.1441 20.4254 24.3444 21.9122C24.5447 23.4008 26.6719 27.9832 28.3674 28.1526C29.0103 28.2164 29.7169 28.0725 30.3489 27.8666C30.012 28.61 29.6951 29.4226 29.4092 30.319C26.7611 38.6129 31.7494 45.6186 34.8218 44.3177C36.7923 43.4832 37.8777 46.8959 37.8777 46.8959L55.4359 27.8921C55.4359 27.8921 45.9329 13.8242 38.5771 19.2411Z" fill="#030E5B"/>
<path d="M61.4509 248.128L57.1802 249.719C57.1802 249.719 38.6313 223.981 36.3476 201.337C35.9396 197.294 36.0762 193.376 36.9577 189.759C36.9577 189.759 36.7755 188.723 36.4586 186.892C36.313 186.037 36.1308 185.008 35.925 183.829C35.3222 180.372 34.4917 175.642 33.5429 170.256C31.3611 157.863 28.5328 142.02 26.3364 130.374L27.4874 130.004L39.9371 125.987L42.5105 117.811L51.7804 115.37C51.7804 115.37 53.8511 119.424 55.7032 138.57C56.0456 141.08 56.3552 143.85 56.5883 146.854C57.3095 156.021 57.3624 167.392 55.7069 180.392C55.2807 183.719 54.7453 187.156 54.0787 190.685C53.5907 193.272 53.5178 196.8 53.7236 200.85C54.6579 219.362 61.4491 248.13 61.4491 248.13L61.4509 248.128Z" fill="#000D8B"/>
<path d="M56.5902 146.853L36.4586 186.894C36.313 186.039 36.1308 185.01 35.925 183.831C35.3222 180.374 34.4918 175.644 33.5429 170.258C31.3611 157.865 28.5328 142.022 26.3364 130.376L27.4874 130.006L39.9371 125.989L42.5105 117.813L51.7804 115.372C51.7804 115.372 53.8511 119.426 55.7032 138.571C56.0456 141.082 56.3552 143.852 56.5884 146.856L56.5902 146.853Z" fill="#030E5B"/>
<path d="M47.7352 120.508L47.2689 116.51C39.4615 118.585 18.5996 110.712 18.5996 110.712C18.5996 110.712 11.0362 117.365 12.0288 133.309C12.5132 141.091 13.3983 174.161 14.3235 183.947C14.6586 187.495 14.95 190.018 15.0702 191.026C15.072 191.031 15.072 191.033 15.072 191.035C15.1084 191.343 15.001 191.633 14.8443 191.902C13.4821 194.214 12.3566 196.621 11.4314 199.083C2.35456 223.281 12.8301 253.081 12.8301 253.081L15.5473 251.985C15.5473 251.985 21.5081 218.823 26.3507 204.172C27.172 201.686 27.9606 199.733 28.6836 198.567C30.7889 195.167 32.7431 189.612 34.5169 183.003C37.8697 170.51 40.5669 154.259 42.3626 141.714C42.6103 141.725 47.7315 120.51 47.7315 120.51L47.7352 120.508Z" fill="#000D8B"/>
<path d="M60.3235 88.4583C60.4765 88.615 60.624 88.7717 60.8043 88.9175C67.4772 95.1379 76.4648 100.639 81.2728 101.85C84.4362 102.659 91.4096 101.575 97.1992 100.383C101.058 99.6219 104.417 98.7801 105.803 98.4503C106.245 98.3465 106.491 98.2699 106.491 98.2699L105.886 94.3635C105.886 94.3635 102.415 94.0884 98.1025 93.6019C92.0962 92.895 84.4817 91.8108 82.5312 90.6575C78.0074 87.9682 70.0688 76.688 63.7 69.5966C63.3668 69.2104 63.0353 68.8387 62.7075 68.4743C62.4671 68.2083 62.2285 67.9459 61.9899 67.6908C61.9408 67.6398 61.8807 67.556 61.8024 67.5122C61.5091 67.2317 61.2615 66.9693 61.0211 66.7397C61.012 66.7105 60.9701 66.6905 60.93 66.6668C59.7972 65.5299 57.8139 64.1488 57.8139 64.1488C56.7012 63.5147 55.7851 63.3908 55.1404 63.9319C55.1404 63.9319 54.3081 64.7464 53.4922 66.2824C53.3192 66.6031 53.148 66.9565 52.9859 67.3428C52.8512 67.5541 52.7838 67.7783 52.7182 68.0024C52.1773 69.4217 51.7839 71.2037 51.855 73.2826C51.9041 74.8568 52.2046 76.5932 52.904 78.5082C54.0167 81.6494 56.8287 85.144 60.3272 88.4565L60.3235 88.4583Z" fill="#FFB27D"/>
<path d="M54.5126 71.9816C52.2506 73.4593 49.4314 74.6509 45.9165 75.3597C32.7383 78.0162 28.0323 66.8053 26.3623 59.1509C28.1762 58.1798 29.8626 58.0012 30.837 57.9119C31.7858 57.8263 32.7838 57.7807 33.6089 57.7625C35.1113 56.6766 37.4315 52.1288 38.1181 44.9828L38.7301 45.165L48.9688 48.2807C48.9688 48.2807 48.4043 51.5494 48.0856 54.645C47.8379 57.0665 47.745 59.3859 48.1875 59.9672C48.9871 60.1639 49.4678 60.2915 49.4678 60.2915C49.4678 60.2915 49.4678 60.2951 49.4733 60.3006C49.6063 60.532 52.4601 65.5408 54.5144 71.9798L54.5126 71.9816Z" fill="#FFB27D"/>
<path d="M59.1007 80.2171C59.0406 80.4976 58.966 80.7728 58.884 81.0552C56.5711 88.7934 54.6989 119.726 54.6989 119.726C55.9246 123.592 33.4564 124.385 21.0668 122.597C16.5612 121.949 13.3886 120.959 13.1701 119.653C10.9537 114.653 16.3791 105.316 19.5115 100.569C19.9049 99.9733 20.2436 99.3465 20.5223 98.6979C21.2307 97.0654 21.5713 95.2871 21.5003 93.4942C21.4056 91.0417 21.1961 88.6603 20.9412 86.4284C20.4622 82.2213 19.8193 78.5481 19.4842 75.948C20.1362 75.2976 20.77 74.6963 21.3619 74.1242C22.2633 73.2423 23.0537 72.4261 23.6074 71.6335C24.2175 70.7698 24.5562 69.9262 24.4816 69.0425C24.4233 68.3739 24.3031 67.6961 24.1355 67.0274C24.0572 66.7103 23.9698 66.397 23.8751 66.0817C22.8698 62.7839 21.0176 59.9306 21.0176 59.9306C24.3723 57.9682 30.8357 57.9081 30.8357 57.9081C30.8357 57.9081 30.8794 58.2616 30.9614 58.8392C31.2765 61.1586 32.1597 67.1039 33.0649 68.1206C34.1958 69.3887 52.0654 73.0638 52.6865 71.0304C53.2984 69.0316 49.6086 60.6193 49.4702 60.3004C49.4666 60.295 49.4666 60.2895 49.4666 60.2895C55.1888 61.6506 57.6747 63.1884 57.7876 63.2795C57.7876 63.2795 57.784 63.2795 57.7822 63.2776C54.677 65.9997 60.7307 72.7996 59.1007 80.2152V80.2171Z" fill="#CF2B24"/>
<path d="M48.9683 48.2843C48.9683 48.2843 48.4019 51.5494 48.085 54.6468C42.2553 53.8961 39.6984 48.2515 38.7295 45.1668L48.9701 48.2825L48.9683 48.2843Z" fill="#ED985F"/>
<path d="M50.6282 51.4145C50.6282 51.4145 36.7743 50.2575 37.6266 41.6356C38.479 33.0156 37.266 27.0594 46.148 27.4347C55.03 27.8082 56.4196 31.2683 56.8348 34.2145C57.2501 37.1607 54.2542 51.4928 50.6282 51.4126V51.4145Z" fill="#FFB27D"/>
<path d="M56.9041 29.3807C55.0264 26.573 53.3527 26.9811 52.3693 27.6699C45.2247 22.754 39.7393 28.4151 39.7393 28.4151C38.1949 34.5079 33.3833 37.6036 33.3833 37.6036C33.3833 37.6036 35.749 39.4147 41.7098 38.5018C43.531 38.2231 45.2429 37.1189 46.7436 35.7232C43.9972 39.4329 40.5115 41.9528 40.5115 41.9528C47.7744 39.4384 51.5297 30.0567 51.9104 29.0637C52.6789 29.9073 54.1777 31.7221 54.5238 33.3874C54.9936 35.6522 54.8516 40.2018 56.1829 40.1799C56.1829 40.1799 59.7233 33.5915 56.9059 29.3826L56.9041 29.3807Z" fill="#030E5B"/>
<path d="M118.717 93.8498C117.331 95.1707 115.93 98.4741 111.663 98.4103C108.618 98.3848 105.537 98.7273 104.044 98.9114C103.463 99.0134 103.126 99.0535 103.126 99.0535L102.973 94.2178C102.973 94.2178 103.035 94.2233 103.173 94.2014C104.204 94.0465 109.44 93.2412 111.512 91.8656C113.838 90.3059 119.278 91.7508 119.278 91.7508C119.278 91.7508 120.112 92.5543 118.717 93.8498Z" fill="#FFB27D"/>
<path d="M28.6337 255.301H7.1253C7.1253 255.301 6.6099 252.022 7.73358 249.533C8.80991 247.146 10.4963 246.06 10.092 243.172C11.4579 244.581 13.6871 246.157 16.7959 245.738C17.1765 246.355 19.2545 249.662 20.5275 250.577C21.9335 251.588 28.2002 251.227 28.6337 255.3V255.301Z" fill="#030E5B"/>
<path d="M74.8152 255.302H53.3069C53.3069 255.302 52.5019 251.869 53.9152 249.533C55.1645 247.467 54.6855 246.29 53.7604 244.581C54.7347 244.98 55.995 245.342 57.3827 245.264C58.4536 245.202 59.5882 244.716 60.5808 244.138C61.5059 245.193 65.4707 249.688 66.7091 250.579C68.1151 251.59 74.3818 251.229 74.8152 255.302Z" fill="#030E5B"/>
<path d="M47.3242 46.4295C47.3242 46.4295 47.5173 47.5701 50.3255 47.5738C50.3255 47.5738 52.6822 47.5756 52.6876 46.3366C52.6876 46.3366 50.4658 45.3145 47.3242 46.4314V46.4295Z" fill="white"/>
<path d="M24.0041 101.222C23.1536 106.613 19.2562 117.432 21.0683 122.6C16.5626 121.951 13.3901 120.962 13.1716 119.655C10.9552 114.655 16.3805 105.318 19.513 100.571C19.9064 99.9754 20.2451 99.3486 20.5237 98.7C21.2322 97.0674 21.5728 95.2891 21.5017 93.4963C21.407 91.0438 21.1976 88.6624 20.9426 86.4304C20.9426 86.4304 24.9092 95.4914 24.0041 101.222Z" fill="#AA1F1F"/>
<path d="M54.4492 64.8464C54.5986 69.6384 58.0625 82.7934 58.8857 81.057C59.8254 79.0765 63.4623 71.5479 65.1706 71.2709C65.0814 70.9229 58.0898 63.1902 57.7838 63.2795C57.7838 63.2795 55.8843 63.8589 54.451 64.8464H54.4492Z" fill="#CF2B24"/>
<path d="M21.4687 132.823L17.9009 135.199C17.9009 135.199 16.9976 134.069 15.568 132.265C15.14 131.722 14.9123 131.394 14.9123 131.394C13.7814 129.937 12.4665 128.148 11.0277 126.207L11.004 126.185C8.5946 122.798 5.94658 118.948 3.9214 115.466C2.51362 112.997 1.41726 110.713 0.881824 108.916C0.823546 108.736 0.790765 108.579 0.754341 108.375C-0.292849 103.818 1.62852 94.7716 4.68631 85.9439C5.10701 84.7231 5.54956 83.5224 5.9739 82.349C7.60023 78.0199 9.42871 73.9513 11.2645 70.6643C12.3408 68.6874 13.4135 66.9638 14.4479 65.6774C14.8067 65.2165 15.1436 64.7828 15.5079 64.4129C15.7046 64.1888 15.9012 63.9738 16.0961 63.7679C18.2397 63.9483 22.7362 64.7992 26.0745 68.6546C26.018 68.8569 25.9579 69.0591 25.8978 69.2668C24.5483 73.6215 22.4648 78.9655 20.3049 84.2038C19.1302 87.0808 17.9282 89.9359 16.8756 92.6216C16.2072 94.2268 15.6044 95.7573 15.058 97.1712C14.0309 99.8769 13.2678 102.129 12.9655 103.709C12.7597 104.733 13.0529 106.659 13.6047 109.027C14.5517 113.156 16.3547 118.715 18.032 123.434C18.7168 125.404 19.3925 127.237 19.9571 128.756C20.8585 131.216 21.4723 132.823 21.4723 132.823H21.4687Z" fill="#FFB27D"/>
<path d="M23.0302 82.2852C19.4661 76.9029 9.25098 74.5871 9.25098 74.5871C15.0151 56.2885 30.1492 57.9848 30.1492 57.9848C30.1492 57.9848 24.6437 77.0214 23.0302 82.2852Z" fill="#CF2B24"/>
<path d="M17.9007 135.199C17.9007 135.199 18.8387 136.584 18.9425 137.579C19.0481 138.575 19.9387 141.877 21.0897 142.924C22.2425 143.972 24.8614 146.069 25.2274 145.754C25.5935 145.439 26.6552 142.968 25.6718 141.221C25.2274 140.432 24.6246 138.233 23.8306 137.701C22.8653 137.054 21.4667 132.821 21.4667 132.821L17.8989 135.197L17.9007 135.199Z" fill="#FFB27D"/>
<path d="M21.4834 133.36C21.4834 133.36 24.3208 134.801 24.7051 135.955C25.0894 137.108 26.6756 139.433 26.5117 139.703C26.3369 139.991 23.871 138.418 23.0332 136.986C22.1955 135.554 21.4834 133.362 21.4834 133.362V133.36Z" fill="#FFB27D"/>
<path d="M89.0117 119.95L192.929 57.7099C198.661 54.2772 205.814 54.2772 211.544 57.7099L315.461 119.95V221.394L89.0135 210.035V119.95H89.0117Z" fill="#030E5B"/>
<path d="M295.967 75.0043H108.502V237.085H295.967V75.0043Z" fill="#ADB1F2"/>
<path d="M315.459 119.672V255.302H89.0117V119.672L202.236 187.487L315.459 119.672Z" fill="#000D8B"/>
<path d="M89.0117 255.301L192.731 180.908C198.413 176.832 206.058 176.832 211.74 180.908L315.459 255.301H89.0117Z" fill="#030E5B"/>
<path d="M236.801 97.4571H168.452C167.459 97.4571 166.647 96.6445 166.647 95.6515C166.647 94.6585 167.459 93.8459 168.452 93.8459H236.801C237.794 93.8459 238.606 94.6585 238.606 95.6515C238.606 96.6445 237.794 97.4571 236.801 97.4571Z" fill="#CACAFB"/>
<path d="M254.408 104.702H150.845C149.853 104.702 149.041 103.889 149.041 102.896C149.041 101.903 149.853 101.09 150.845 101.09H254.408C255.4 101.09 256.213 101.903 256.213 102.896C256.213 103.889 255.4 104.702 254.408 104.702Z" fill="#CACAFB"/>
<path d="M240.976 127.169H166.046C165.328 127.169 164.74 126.581 164.74 125.863C164.74 125.145 165.328 124.556 166.046 124.556H240.976C241.693 124.556 242.281 125.145 242.281 125.863C242.281 126.581 241.693 127.169 240.976 127.169Z" fill="#CACAFB"/>
<path d="M173.571 133.991H152.443C151.725 133.991 151.137 133.402 151.137 132.685C151.137 131.967 151.725 131.378 152.443 131.378H173.571C174.288 131.378 174.877 131.967 174.877 132.685C174.877 133.402 174.288 133.991 173.571 133.991Z" fill="#CACAFB"/>
<path d="M205.435 133.991H179.911C179.193 133.991 178.605 133.402 178.605 132.685C178.605 131.967 179.193 131.378 179.911 131.378H205.435C206.152 131.378 206.741 131.967 206.741 132.685C206.741 133.402 206.152 133.991 205.435 133.991Z" fill="#CACAFB"/>
<path d="M254.579 133.991H210.453C209.735 133.991 209.147 133.402 209.147 132.685C209.147 131.967 209.735 131.378 210.453 131.378H254.579C255.296 131.378 255.884 131.967 255.884 132.685C255.884 133.402 255.296 133.991 254.579 133.991Z" fill="#CACAFB"/>
<path d="M205.602 141.922H164.56C163.842 141.922 163.254 141.334 163.254 140.616C163.254 139.898 163.842 139.309 164.56 139.309H205.602C206.32 139.309 206.908 139.898 206.908 140.616C206.908 141.334 206.32 141.922 205.602 141.922Z" fill="#CACAFB"/>
<path d="M242.463 141.922H210.136C209.419 141.922 208.831 141.334 208.831 140.616C208.831 139.898 209.419 139.309 210.136 139.309H242.463C243.18 139.309 243.768 139.898 243.768 140.616C243.768 141.334 243.18 141.922 242.463 141.922Z" fill="#CACAFB"/>
<g opacity="0.5">
<path d="M348.32 12.0599L341.104 39.1134L295.935 27.0552L303.152 0.00170898L322.128 19.5576L348.32 12.0599Z" fill="#CACAFB"/>
<path d="M303.153 0.00182103L348.321 12.06L324.877 20.5944C323.028 21.2667 320.956 20.7256 319.673 19.2315L303.153 0V0.00182103Z" fill="#ADB1F2"/>
</g>
<path d="M346.228 129.875C346.228 129.875 340.253 130.29 335.842 141.056C331.393 151.916 341.344 151.808 337.991 158.727C334.638 165.645 342.817 169.772 345.299 175.436C347.783 181.101 360.295 194.764 361.286 200.998C362.277 207.229 373.402 194.519 373.402 194.519C373.402 194.519 384.712 182.449 380.656 175.438C373.972 163.881 379.762 161.37 379.552 154.917C379.343 148.463 367.097 123.029 346.226 129.878L346.228 129.875Z" fill="#030E5B"/>
<path d="M342.984 168.5C342.984 168.5 319.849 178.589 315.454 178.396C311.06 178.204 283.98 170.144 283.98 170.144L284.671 174.804C284.671 174.804 305.569 186.83 312.876 187.511C320.069 188.184 344.665 181.052 347.039 179.547C349.414 178.042 349.886 170.023 342.985 168.5H342.984Z" fill="#7A3814"/>
<path d="M341.116 179.56C343.242 181.036 345.908 182.253 349.255 183.025C361.801 185.926 366.609 175.316 368.414 168.036C366.704 167.055 365.094 166.84 364.163 166.729C363.257 166.622 362.302 166.551 361.514 166.512C360.106 165.434 358.006 161.015 357.542 154.155L356.952 154.314L347.064 157.021C347.064 157.021 347.518 160.166 347.74 163.138C347.911 165.465 348.213 166.813 347.773 167.358C347.001 167.525 346.263 168.507 346.263 168.507C346.263 168.507 346.263 168.511 346.257 168.517C346.125 168.733 343.256 173.454 341.116 179.562V179.56Z" fill="#894518"/>
<path d="M347.063 157.021C347.063 157.021 347.519 160.162 347.739 163.138C353.341 162.577 355.94 157.242 356.953 154.314L347.063 157.021Z" fill="#7A3814"/>
<path d="M345.392 159.973C345.392 159.973 358.689 159.239 358.104 150.961C357.52 142.684 358.842 137.015 350.328 137.134C341.814 137.252 340.389 140.526 339.912 143.338C339.435 146.147 341.917 159.949 345.39 159.973H345.392Z" fill="#894518"/>
<path d="M372.201 206.606C373.401 200.466 377.317 175.93 373.401 168.036C371.995 165.199 366.479 164.944 360.425 165.191C358.542 166.408 351.365 171.005 348.416 170.431C348.385 170.426 348.327 170.411 348.25 170.393C346.863 170.045 346.613 168.198 347.771 167.356C347.773 167.354 344.499 167.939 340.776 168.64C338.673 169.036 333.001 171.973 333.001 171.973C333.001 171.973 335.857 177.135 340.07 178.919C339.354 185.328 340.419 188.156 347.065 202.96C352.681 215.474 346.307 226.741 346.307 226.741C346.307 226.741 379.369 253.336 379.553 239.794C379.692 229.6 370.667 214.455 372.203 206.606H372.201Z" fill="#CF2B24"/>
<path d="M344.668 255.657C342.871 255.455 341.252 254.469 340.246 252.964C340.086 252.725 339.917 252.468 339.734 252.193C335.972 246.494 334.508 229.039 326.043 210.443C323.981 205.915 316.58 205.103 314.562 199.985C314.562 199.985 309.595 183.397 324.069 182.909C338.543 182.419 362.833 229.063 363.217 233.955C363.589 238.694 372.787 258.833 344.668 255.659V255.657Z" fill="#030E5B"/>
<path d="M287.137 255.276H307.739C307.739 255.276 308.509 251.989 307.156 249.752C305.959 247.773 306.418 246.645 307.303 245.007C306.371 245.39 305.163 245.738 303.834 245.661C302.807 245.603 301.721 245.136 300.771 244.583C299.884 245.594 296.087 249.899 294.901 250.752C293.555 251.719 287.551 251.375 287.137 255.276Z" fill="#030E5B"/>
<path d="M370.03 174.465C370.03 174.465 372.71 198.871 355.322 203.986C337.933 209.1 332.995 181.529 347.035 179.547C361.075 177.565 370.03 174.465 370.03 174.465Z" fill="#AA1F1F"/>
<path d="M314.09 187.702C312.849 197.008 308.005 226.375 299.458 240.702C296.703 245.321 306.399 247.91 306.452 247.897C307.752 247.556 309.919 245.483 310.917 244.581C317.856 238.326 331.939 220.612 331.939 206.411C331.939 199.487 332.061 186.263 327.027 182.901C323.928 180.832 314.581 184.006 314.088 187.701L314.09 187.702Z" fill="#030E5B"/>
<path d="M356.953 255.276C356.953 255.276 356.19 254.214 354.859 252.193C353.274 249.792 351.521 245.067 349.393 239.011C347.159 232.654 344.507 224.832 341.194 216.693C340.173 214.18 339.085 211.639 337.931 209.099C335.869 204.571 330.196 205.198 328.178 200.08C328.178 200.08 320.303 182.338 334.778 181.848C349.253 181.358 376.757 229.309 378.338 233.953C380.068 239.036 388.509 260.146 356.95 255.276H356.953Z" fill="#000D8B"/>
<path d="M302.26 255.276H322.861C322.861 255.276 323.632 251.989 322.278 249.752C321.082 247.773 321.541 246.645 322.426 245.007C321.493 245.39 320.286 245.738 318.957 245.661C317.929 245.603 316.844 245.136 315.893 244.583C315.006 245.594 311.209 249.899 310.024 250.752C308.678 251.719 302.673 251.375 302.26 255.276Z" fill="#000D8B"/>
<path d="M349.392 239.012C347.157 232.655 344.506 224.833 341.193 216.694C342.058 210.529 343.925 205.134 347.063 202.96C347.063 202.96 354.675 226.557 349.392 239.012Z" fill="#030E5B"/>
<path d="M326.117 187.043C324.877 196.348 323.128 226.375 314.583 240.702C311.828 245.32 321.524 247.91 321.577 247.897C322.877 247.556 325.044 245.483 326.042 244.581C332.979 238.326 347.064 220.612 347.064 206.411C347.064 199.487 338.942 186.819 333.91 183.457C330.81 181.387 326.61 183.346 326.117 187.041V187.043Z" fill="#000D8B"/>
<path d="M300.609 162.642C300.609 162.642 299.554 159.96 297.633 160.133C295.711 160.308 278.266 162.642 278.266 162.642C278.266 162.642 280.297 163.129 281.063 164.461L289.111 188.185H309.753L300.609 162.642Z" fill="#EBF3FA"/>
<path d="M368.415 168.035C368.415 168.035 339.174 178.809 334.782 178.589C331.942 178.446 308.338 170.145 308.338 170.145L306.22 174.156C306.22 174.156 329.194 188.929 335.51 188.856C347.98 188.712 369.02 181.054 371.395 179.549C373.77 178.044 375.318 169.56 368.417 168.037L368.415 168.035Z" fill="#894518"/>
<path d="M308.336 170.143C308.336 170.143 306.218 166.88 304.107 166.785C301.996 166.689 298.352 168.225 297.106 168.465C295.859 168.706 292.311 169.857 293.366 171.583C294.42 173.31 299.312 173.695 301.423 173.31C303.533 172.926 306.218 174.154 306.218 174.154L308.336 170.143Z" fill="#894518"/>
<path d="M304.68 166.886C304.68 166.886 301.326 165.346 300.366 165.058C299.406 164.77 299.599 165.064 299.887 165.973C300.175 166.882 301.901 167.749 301.901 168.035C301.901 168.322 304.68 166.886 304.68 166.886Z" fill="#894518"/>
<path d="M342.901 155.214C342.901 155.214 344.158 154.716 347.695 155.002C347.695 155.002 347.507 156.383 344.899 156.52C343.422 156.597 342.901 155.214 342.901 155.214Z" fill="white"/>
<path d="M353.351 173.348C353.351 173.348 355.966 181.631 364.948 183.515C364.948 183.515 379.78 178.944 372.395 168.835C372.395 168.835 365.094 163.407 353.351 173.348Z" fill="#CF2B24"/>
<path d="M278.266 162.642C278.266 162.642 276.328 163.384 277.794 165.9L296.655 163.384C296.655 163.384 295.999 160.467 297.482 160.15L278.268 162.642H278.266Z" fill="white"/>
<path d="M285.025 168.833C285.473 167.041 285.443 166.607 284.431 165.512C283.761 164.789 282.735 166.583 282.205 167.666C282.01 167.188 281.679 166.41 281.566 166.37C281.402 166.314 281.792 168.781 281.792 168.781C281.781 168.883 281.777 168.985 281.781 169.089C281.781 169.089 280.963 172.713 284.527 174.671L283.848 172.672C284.262 172.603 284.571 170.654 285.025 168.832V168.833Z" fill="#7A3814"/>
<path d="M344.885 138.965C344.885 138.965 347.688 137.983 349.047 140.847C350.403 143.711 350.835 150.56 356.277 151.12C361.719 151.679 361.93 139.519 361.93 139.519L348.309 134.138L341.117 138.681L344.887 138.965H344.885Z" fill="#030E5B"/>
<path d="M344.886 138.965C344.886 138.965 341.817 139.031 341.116 141.616C340.415 144.201 341.51 149.024 339.81 149.372C338.111 149.722 336.567 141.335 339.854 138.61C343.141 135.884 344.886 138.963 344.886 138.963V138.965Z" fill="#030E5B"/>
<path d="M99.3354 97.5974C99.3354 97.5974 104.538 95.6257 105.128 94.265C105.72 92.9042 107.434 92.3118 109.504 91.3646C111.573 90.4173 112.816 88.7017 113.112 88.9393C113.408 89.1769 113.467 90.3587 112.641 91.2473C111.811 92.1359 108.304 98.3472 106.984 99.0569C105.661 99.7665 99.3354 97.5974 99.3354 97.5974Z" fill="#FFB27D"/>
</svg>
